<svg xmlns="http://www.w3.org/2000/svg" width="697.963" height="631.463" viewBox="0 0 697.963 631.463">
  <g id="undraw_Hiring_re_yk5n" transform="translate(0 0)">
    <path id="Path_1" data-name="Path 1" d="M556.072,656.52H264.848a13.845,13.845,0,0,1-13.829-13.829V247.342a13.845,13.845,0,0,1,13.829-13.829H556.072A13.845,13.845,0,0,1,569.9,247.342v395.35a13.845,13.845,0,0,1-13.829,13.829Z" transform="translate(-251.019 -134.268)" fill="#fff"/>
    <path id="Path_2" data-name="Path 2" d="M397.332,336.4a54.107,54.107,0,0,1-37.342,51.444c-.324.1-.649.206-.978.3-1.406.433-2.832.8-4.283,1.116a53.173,53.173,0,0,1-7.971,1.106q-1.748.118-3.516.118a54,54,0,0,1-17.884-3.029c-.167-.059-.334-.118-.5-.177a54.095,54.095,0,1,1,72.47-50.884Z" transform="translate(-251.019 -134.268)" fill="#fff"/>
    <circle id="Ellipse_1" data-name="Ellipse 1" cx="26.317" cy="26.317" r="26.317" transform="translate(64.611 185.338)" fill="#616161"/>
    <path id="Path_3" data-name="Path 3" d="M343.482,360.1l.027-.983c-1.83-.051-3.443-.166-4.655-1.051a3.023,3.023,0,0,1-1.171-2.227,1.728,1.728,0,0,1,.567-1.423,2.979,2.979,0,0,1,3.043-.027l.814.373-1.56-11.4-.974.134,1.327,9.7a3.471,3.471,0,0,0-3.284.473,2.69,2.69,0,0,0-.915,2.209,4,4,0,0,0,1.574,2.986C339.832,360,341.856,360.057,343.482,360.1Z" transform="translate(-251.019 -134.268)" fill="#2f2e41"/>
    <rect id="Rectangle_1" data-name="Rectangle 1" width="5.297" height="0.983" transform="translate(78.439 210.063)" fill="#2f2e41"/>
    <rect id="Rectangle_2" data-name="Rectangle 2" width="5.297" height="0.983" transform="translate(95.158 210.063)" fill="#2f2e41"/>
    <path id="Path_4" data-name="Path 4" d="M349.423,382.714a4.815,4.815,0,0,0,.108-.983,4.679,4.679,0,0,0-4.671-4.671h-6.884a4.675,4.675,0,0,0-4.671,4.671,4.545,4.545,0,0,0,.108.988,26.425,26.425,0,0,0-7.282,3.6c-.433.3-.861.624-1.269.964.162.059.329.118.5.177a53.994,53.994,0,0,0,17.884,3.029q1.77,0,3.516-.118a53.174,53.174,0,0,0,7.971-1.106c1.451-.315,2.877-.683,4.283-1.116a26.651,26.651,0,0,0-9.589-5.438Z" transform="translate(-251.019 -134.268)" fill="#2f2e41"/>
    <path id="Path_5" data-name="Path 5" d="M348.538,389.751a3.619,3.619,0,0,0-1.78.625,53.169,53.169,0,0,0,7.971-1.106Z" transform="translate(-251.019 -134.268)" fill="#2f2e41"/>
    <path id="Path_6" data-name="Path 6" d="M365.814,339.672,320.1,322.947a1.967,1.967,0,0,1-1.171-2.523l.155-.731c3.57-9.76,15.4-15.9,25.165-12.332l14.068,5.147c9.76,3.57,14,15.127,10.431,24.887l-.407,1.105A1.967,1.967,0,0,1,365.814,339.672Z" transform="translate(-251.019 -134.268)" fill="#2f2e41"/>
    <path id="Path_7" data-name="Path 7" d="M368.276,340.6c-63.721,2.351-69.289-5.655-49.874-18.245l4.119-7.579,47.206,17.21Z" transform="translate(-251.019 -134.268)" fill="#2f2e41"/>
    <ellipse id="Ellipse_2" data-name="Ellipse 2" cx="2.213" cy="4.18" rx="2.213" ry="4.18" transform="translate(96.121 176.752) rotate(-73.27)" fill="#2f2e41"/>
    <path id="Path_8" data-name="Path 8" d="M343.242,391.968a55.431,55.431,0,0,1-18.372-3.112l-.513-.183a55.565,55.565,0,1,1,36.089.577c-.349.111-.678.216-1.013.315-1.4.43-2.878.816-4.392,1.144a54.764,54.764,0,0,1-8.193,1.137C345.664,391.927,344.448,391.968,343.242,391.968Zm0-108.179a52.622,52.622,0,0,0-17.88,102.11l.487.174a52.475,52.475,0,0,0,17.392,2.945c1.14,0,2.289-.039,3.416-.115a51.874,51.874,0,0,0,7.758-1.076c1.432-.31,2.832-.675,4.161-1.084.329-.1.641-.2.954-.3a52.622,52.622,0,0,0-16.29-102.657Z" transform="translate(-251.019 -134.268)" fill="#ccc"/>
    <path id="Path_9" data-name="Path 9" d="M269.607,502.682" transform="translate(-251.019 -134.268)" fill="#f2f2f2"/>
    <path id="Path_10" data-name="Path 10" d="M556.072,656.52H264.848a13.845,13.845,0,0,1-13.829-13.829V247.342a13.845,13.845,0,0,1,13.829-13.829H556.072A13.845,13.845,0,0,1,569.9,247.342v395.35a13.845,13.845,0,0,1-13.829,13.829ZM264.848,235.14a12.216,12.216,0,0,0-12.2,12.2v395.35a12.216,12.216,0,0,0,12.2,12.2H556.072a12.216,12.216,0,0,0,12.2-12.2V247.342a12.216,12.216,0,0,0-12.2-12.2Z" transform="translate(-251.019 -134.268)" fill="#ccc"/>
    <path id="Path_11" data-name="Path 11" d="M499.695,336.193H417.288a6.519,6.519,0,0,1,0-13.039h82.407a6.519,6.519,0,0,1,0,13.039Z" transform="translate(-251.019 -134.268)" fill="#e6e6e6"/>
    <path id="Path_12" data-name="Path 12" d="M526.587,358.2h-109.3a6.519,6.519,0,0,1,0-13.039h109.3a6.519,6.519,0,0,1,0,13.039Z" transform="translate(-251.019 -134.268)" fill="#e6e6e6"/>
    <path id="Path_13" data-name="Path 13" d="M499.575,442.585H294.333a6.519,6.519,0,0,1,0-13.039H499.575a6.519,6.519,0,1,1,0,13.039Z" transform="translate(-251.019 -134.268)" fill="#e6e6e6"/>
    <path id="Path_14" data-name="Path 14" d="M526.467,464.587H294.333a6.519,6.519,0,0,1,0-13.039H526.467a6.519,6.519,0,0,1,0,13.039Z" transform="translate(-251.019 -134.268)" fill="#e6e6e6"/>
    <path id="Path_15" data-name="Path 15" d="M499.575,515.158H294.333a6.519,6.519,0,1,1,0-13.039H499.575a6.519,6.519,0,0,1,0,13.039Z" transform="translate(-251.019 -134.268)" fill="#e6e6e6"/>
    <path id="Path_16" data-name="Path 16" d="M526.467,537.16H294.333a6.519,6.519,0,1,1,0-13.039H526.467a6.519,6.519,0,0,1,0,13.039Z" transform="translate(-251.019 -134.268)" fill="#e6e6e6"/>
    <path id="Path_17" data-name="Path 17" d="M499.575,587.731H294.333a6.519,6.519,0,1,1,0-13.039H499.575a6.519,6.519,0,0,1,0,13.039Z" transform="translate(-251.019 -134.268)" fill="#e6e6e6"/>
    <path id="Path_18" data-name="Path 18" d="M526.467,609.733H294.333a6.519,6.519,0,1,1,0-13.039H526.467a6.519,6.519,0,0,1,0,13.039Z" transform="translate(-251.019 -134.268)" fill="#e6e6e6"/>
    <path id="Path_19" data-name="Path 19" d="M935.152,557.276H643.928A13.845,13.845,0,0,1,630.1,543.447V148.1a13.845,13.845,0,0,1,13.829-13.829H935.152A13.845,13.845,0,0,1,948.981,148.1V543.447a13.845,13.845,0,0,1-13.829,13.829Z" transform="translate(-251.019 -134.268)" fill="#fff"/>
    <path id="Path_20" data-name="Path 20" d="M935.152,557.276H643.928A13.845,13.845,0,0,1,630.1,543.447V148.1a13.845,13.845,0,0,1,13.829-13.829H935.152A13.845,13.845,0,0,1,948.981,148.1V543.447a13.845,13.845,0,0,1-13.829,13.829ZM643.927,135.9a12.216,12.216,0,0,0-12.2,12.2V543.447a12.216,12.216,0,0,0,12.2,12.2H935.152a12.216,12.216,0,0,0,12.2-12.2V148.1a12.216,12.216,0,0,0-12.2-12.2Z" transform="translate(-251.019 -134.268)" fill="#ccc"/>
    <path id="Path_21" data-name="Path 21" d="M776.548,236.62a54.09,54.09,0,1,1-54.09-54.09A54.09,54.09,0,0,1,776.548,236.62Z" transform="translate(-251.019 -134.268)" fill="#fff"/>
    <path id="Path_22" data-name="Path 22" d="M747.458,245.876c-.591,34.593-52.047,34.588-52.633,0C695.415,211.282,746.872,211.288,747.458,245.876Z" transform="translate(-251.019 -134.268)" fill="#616161"/>
    <path id="Path_23" data-name="Path 23" d="M720.1,256.613l-.027-.983c6.778.905,8.238-7.5,1.4-4.355l1.56-11.4.974.133-1.327,9.7C729.876,248.633,727.214,257.6,720.1,256.613Z" transform="translate(-251.019 -134.268)" fill="#2f2e41"/>
    <rect id="Rectangle_3" data-name="Rectangle 3" width="5.297" height="0.983" transform="translate(477.806 106.573)" fill="#2f2e41"/>
    <rect id="Rectangle_4" data-name="Rectangle 4" width="5.297" height="0.983" transform="translate(461.087 106.573)" fill="#2f2e41"/>
    <path id="Path_24" data-name="Path 24" d="M729.672,282.67c1.033-6.968-7.125-5.591-11.442-5.66a4.68,4.68,0,0,0-4.563,5.655,25.589,25.589,0,0,0-9.092,5.016,54.324,54.324,0,0,0,34.632.384,25.457,25.457,0,0,0-9.535-5.394Z" transform="translate(-251.019 -134.268)" fill="#2f2e41"/>
    <path id="Path_25" data-name="Path 25" d="M708.769,233.429c4.877-2.819,10.792-.656,15.829.526,9.558,2.938,22.962-.741,24.124-12.127,1.21-10.589-13.276-16.491-17.906-5.952l1.348-.176c-15.016-22.315-41.135-21.469-40.963,9.211-.056.948,1.42.945,1.475,0-.553-18.079,11.412-30.438,28.326-18.819a49.832,49.832,0,0,1,9.889,10.354c1.762,1.974,2.144-6.527,10.575-4.3,9.278,3.594,6.251,16.88-2.042,19.8-10.247,5.235-21.344-4.915-31.4.214a.738.738,0,0,0,.745,1.274Z" transform="translate(-251.019 -134.268)" fill="#2f2e41"/>
    <path id="Path_26" data-name="Path 26" d="M722.459,292.185a55.518,55.518,0,1,1,17.2-2.718A55.518,55.518,0,0,1,722.459,292.185Zm0-108.179a52.622,52.622,0,1,0,52.615,52.617A52.624,52.624,0,0,0,722.459,184.006Z" transform="translate(-251.019 -134.268)" fill="#ccc"/>
    <path id="Path_27" data-name="Path 27" d="M878.774,236.949H796.368a6.519,6.519,0,0,1,0-13.039h82.406a6.519,6.519,0,1,1,0,13.039Z" transform="translate(-251.019 -134.268)" fill="#e6e6e6"/>
    <path id="Path_28" data-name="Path 28" d="M905.667,258.951h-109.3a6.519,6.519,0,0,1,0-13.039h109.3a6.519,6.519,0,0,1,0,13.039Z" transform="translate(-251.019 -134.268)" fill="#e6e6e6"/>
    <path id="Path_29" data-name="Path 29" d="M878.655,343.34H673.413a6.519,6.519,0,0,1,0-13.039H878.655a6.519,6.519,0,1,1,0,13.039Z" transform="translate(-251.019 -134.268)" fill="#e6e6e6"/>
    <path id="Path_30" data-name="Path 30" d="M905.547,365.343H673.413a6.519,6.519,0,0,1,0-13.039H905.547a6.519,6.519,0,0,1,0,13.039Z" transform="translate(-251.019 -134.268)" fill="#e6e6e6"/>
    <path id="Path_31" data-name="Path 31" d="M878.655,415.913H673.413a6.519,6.519,0,0,1,0-13.039H878.655a6.519,6.519,0,0,1,0,13.039Z" transform="translate(-251.019 -134.268)" fill="#e6e6e6"/>
    <path id="Path_32" data-name="Path 32" d="M905.547,437.916H673.413a6.519,6.519,0,0,1,0-13.039H905.547a6.519,6.519,0,0,1,0,13.039Z" transform="translate(-251.019 -134.268)" fill="#e6e6e6"/>
    <path id="Path_33" data-name="Path 33" d="M878.655,488.487H673.413a6.519,6.519,0,1,1,0-13.039H878.655a6.519,6.519,0,1,1,0,13.039Z" transform="translate(-251.019 -134.268)" fill="#e6e6e6"/>
    <path id="Path_34" data-name="Path 34" d="M905.547,510.489H673.413a6.519,6.519,0,1,1,0-13.039H905.547a6.519,6.519,0,1,1,0,13.039Z" transform="translate(-251.019 -134.268)" fill="#e6e6e6"/>
    <path id="Path_35" data-name="Path 35" d="M759.441,727.293H468.217a13.845,13.845,0,0,1-13.829-13.829V318.114a13.845,13.845,0,0,1,13.829-13.829H759.441a13.845,13.845,0,0,1,13.829,13.829V713.464a13.845,13.845,0,0,1-13.829,13.829Z" transform="translate(-251.019 -134.268)" fill="#fff"/>
    <path id="Path_36" data-name="Path 36" d="M492.506,406.064a53.926,53.926,0,0,0,15.9,38.31c.423.418.856.836,1.293,1.244a54.016,54.016,0,0,0,8.586,6.545c.59.364,1.18.713,1.785,1.052a53.784,53.784,0,0,0,9.775,4.293c.585.192,1.18.374,1.775.541a54.312,54.312,0,0,0,32.857-.924c.206-.074.413-.148.615-.221a54.094,54.094,0,1,0-72.588-50.839Z" transform="translate(-251.019 -134.268)" fill="#fff"/>
    <path id="Path_37" data-name="Path 37" d="M535.173,432.576a16.761,16.761,0,0,1-4.329,11.347c-2.781,3.052-6.922,5.076-11.1,4.239-3.847-.771-6.974-4.134-6.584-8.2a6.076,6.076,0,0,1,7.507-5.456c3.655.948,5.111,6.216,2.065,8.688-.731.593-1.781-.444-1.043-1.043a3.684,3.684,0,0,0-1.039-6.107,4.63,4.63,0,0,0-6.03,4.094c-.241,3.429,2.386,6.012,5.608,6.62,3.485.658,6.941-1.126,9.3-3.588a15.222,15.222,0,0,0,4.167-10.593.738.738,0,0,1,1.475,0Z" transform="translate(-251.019 -134.268)" fill="#2f2e41"/>
    <circle id="Ellipse_3" data-name="Ellipse 3" cx="26.317" cy="26.317" r="26.317" transform="translate(272.242 255.052)" fill="#616161"/>
    <path id="Path_38" data-name="Path 38" d="M548.231,426.866l-.027-.983c1.83-.051,3.443-.166,4.655-1.051a3.023,3.023,0,0,0,1.171-2.227,1.728,1.728,0,0,0-.567-1.423,2.979,2.979,0,0,0-3.043-.027l-.814.373,1.56-11.4.974.134-1.327,9.7a3.471,3.471,0,0,1,3.284.473,2.69,2.69,0,0,1,.915,2.209,4,4,0,0,1-1.574,2.986C551.881,426.763,549.857,426.82,548.231,426.866Z" transform="translate(-251.019 -134.268)" fill="#2f2e41"/>
    <rect id="Rectangle_5" data-name="Rectangle 5" width="5.297" height="0.983" transform="translate(305.94 276.826)" fill="#2f2e41"/>
    <rect id="Rectangle_6" data-name="Rectangle 6" width="5.297" height="0.983" transform="translate(289.222 276.826)" fill="#2f2e41"/>
    <path id="Path_39" data-name="Path 39" d="M531.622,458.049a54.313,54.313,0,0,0,32.857-.924c.206-.074.413-.148.615-.221a26.2,26.2,0,0,0-8.335-4.307,4.193,4.193,0,0,0-.01-2.311,4.651,4.651,0,0,0-4.5-3.265h-6.412a4.635,4.635,0,0,0-4.489,3.26,4.211,4.211,0,0,0-.01,2.316,26.225,26.225,0,0,0-7.435,3.644q-.686.479-1.328,1C532.252,457.5,531.932,457.774,531.622,458.049Z" transform="translate(-251.019 -134.268)" fill="#2f2e41"/>
    <path id="Path_40" data-name="Path 40" d="M570.193,412.845c0,4.435,2.183,8.113,5.021,8.753a4.057,4.057,0,0,0,.88.1c3.25,0,5.9-3.968,5.9-8.851a10.869,10.869,0,0,0-2.272-6.973,5.692,5.692,0,0,0-1.736-1.411,4.115,4.115,0,0,0-1.893-.467,4.314,4.314,0,0,0-2.513.846C571.58,406.256,570.193,409.309,570.193,412.845Z" transform="translate(-251.019 -134.268)" fill="#3f3d56"/>
    <path id="Path_41" data-name="Path 41" d="M517.579,412.845c0,3.816,1.613,7.071,3.875,8.315a4.2,4.2,0,0,0,2.026.536,3.813,3.813,0,0,0,.472-.03c3.029-.359,5.429-4.175,5.429-8.821,0-3.722-1.539-6.914-3.713-8.217a4.217,4.217,0,0,0-2.188-.634,4.115,4.115,0,0,0-1.893.467,5.727,5.727,0,0,0-1.741,1.416,10.89,10.89,0,0,0-2.267,6.968Z" transform="translate(-251.019 -134.268)" fill="#3f3d56"/>
    <path id="Path_42" data-name="Path 42" d="M521.821,420.311a.738.738,0,0,0,.7-.974,28.765,28.765,0,1,1,55.411-3.233.738.738,0,1,0,1.443.3,30.241,30.241,0,1,0-58.252,3.4A.738.738,0,0,0,521.821,420.311Z" transform="translate(-251.019 -134.268)" fill="#3f3d56"/>
    <path id="Path_43" data-name="Path 43" d="M562.8,398.586a3.688,3.688,0,0,1-.57,4.566c-1.429,1.6-3.707,1.7-5.685,1.4-2.22-.332-4.574-1.372-6.822-.672-1.915.6-3.282,2.335-5.272,2.771-1.765.387-3.875-.125-4.494-2.006-.3-.9,1.127-1.291,1.422-.392.4,1.217,2.128,1.193,3.118.856,1.587-.54,2.81-1.854,4.369-2.482a9.56,9.56,0,0,1,5.706.016c1.764.4,3.8.986,5.553.244,1.3-.549,2.336-2.279,1.4-3.556-.562-.767.718-1.5,1.274-.745Z" transform="translate(-251.019 -134.268)" fill="#2f2e41"/>
    <path id="Path_44" data-name="Path 44" d="M546.6,461.629a55.459,55.459,0,0,1-15.382-2.163c-.588-.165-1.205-.353-1.825-.556a55.413,55.413,0,0,1-10.04-4.409c-.6-.336-1.2-.69-1.836-1.082a55.614,55.614,0,0,1-8.819-6.723c-.447-.417-.89-.845-1.322-1.272A55.56,55.56,0,1,1,565.6,458.29c-.2.074-.413.149-.623.224a55.436,55.436,0,0,1-18.38,3.115Zm0-108.179a52.617,52.617,0,0,0-37.146,89.88c.408.4.831.811,1.258,1.21a52.67,52.67,0,0,0,8.352,6.367c.6.371,1.169.705,1.734,1.022a52.444,52.444,0,0,0,9.509,4.176c.584.191,1.161.367,1.718.524a52.836,52.836,0,0,0,31.971-.9l.6-.215A52.621,52.621,0,0,0,546.6,353.449Z" transform="translate(-251.019 -134.268)" fill="#ccc"/>
    <path id="Path_45" data-name="Path 45" d="M759.441,727.293H468.217a13.845,13.845,0,0,1-13.829-13.829V318.114a13.845,13.845,0,0,1,13.829-13.829H759.441a13.845,13.845,0,0,1,13.829,13.829V713.464a13.845,13.845,0,0,1-13.829,13.829ZM468.217,305.912a12.216,12.216,0,0,0-12.2,12.2v395.35a12.216,12.216,0,0,0,12.2,12.2H759.441a12.216,12.216,0,0,0,12.2-12.2V318.114a12.216,12.216,0,0,0-12.2-12.2Z" transform="translate(-251.019 -134.268)" fill="#3f3d56"/>
    <path id="Path_46" data-name="Path 46" d="M703.064,406.965H620.657a6.519,6.519,0,1,1,0-13.039h82.406a6.519,6.519,0,0,1,0,13.039Z" transform="translate(-251.019 -134.268)" fill="#616161"/>
    <path id="Path_47" data-name="Path 47" d="M729.956,428.968h-109.3a6.519,6.519,0,0,1,0-13.039h109.3a6.519,6.519,0,1,1,0,13.039Z" transform="translate(-251.019 -134.268)" fill="#616161"/>
    <path id="Path_48" data-name="Path 48" d="M702.944,513.357H497.7a6.519,6.519,0,1,1,0-13.039H702.944a6.519,6.519,0,0,1,0,13.039Z" transform="translate(-251.019 -134.268)" fill="#ccc"/>
    <path id="Path_49" data-name="Path 49" d="M729.836,535.36H497.7a6.519,6.519,0,0,1,0-13.039H729.836a6.519,6.519,0,0,1,0,13.039Z" transform="translate(-251.019 -134.268)" fill="#ccc"/>
    <path id="Path_50" data-name="Path 50" d="M702.944,585.93H497.7a6.519,6.519,0,0,1,0-13.039H702.944a6.519,6.519,0,1,1,0,13.039Z" transform="translate(-251.019 -134.268)" fill="#ccc"/>
    <path id="Path_51" data-name="Path 51" d="M729.836,607.933H497.7a6.519,6.519,0,0,1,0-13.039H729.836a6.519,6.519,0,0,1,0,13.039Z" transform="translate(-251.019 -134.268)" fill="#ccc"/>
    <path id="Path_52" data-name="Path 52" d="M702.944,658.5H497.7a6.519,6.519,0,1,1,0-13.039H702.944a6.519,6.519,0,0,1,0,13.039Z" transform="translate(-251.019 -134.268)" fill="#ccc"/>
    <path id="Path_53" data-name="Path 53" d="M729.836,680.506H497.7a6.519,6.519,0,0,1,0-13.039H729.836a6.519,6.519,0,0,1,0,13.039Z" transform="translate(-251.019 -134.268)" fill="#ccc"/>
    <path id="Path_54" data-name="Path 54" d="M756.062,637.268a64.232,64.232,0,1,0,0,128.463h0a64.232,64.232,0,1,0,0-128.463Z" transform="translate(-251.019 -134.268)" fill="#14f214"/>
    <path id="f276b720-7c73-4755-84a7-b208d54eb1fc" d="M749.968,728.176a7.8,7.8,0,0,1-4.69-1.559l-.084-.063L727.53,713.042a7.85,7.85,0,1,1,9.552-12.459l11.441,8.774,27.036-35.271a7.846,7.846,0,0,1,11-1.453h0l0,0-.168.233.172-.233a7.856,7.856,0,0,1,1.451,11l-31.8,41.468a7.85,7.85,0,0,1-6.244,3.061Z" transform="translate(-251.019 -134.268)" fill="#fff"/>
  </g>
</svg>
